<mxfile host="app.diagrams.net" agent="Mozilla/5.0 (Windows NT 10.0; Win64; x64) AppleWebKit/537.36 (KHTML, like Gecko) Chrome/134.0.0.0 Safari/537.36 Edg/134.0.0.0" version="26.1.2">
  <diagram name="Page-1" id="MJzKE2q8FCVmi_Rd1i4r">
    <mxGraphModel dx="1042" dy="565" grid="1" gridSize="10" guides="1" tooltips="1" connect="1" arrows="1" fold="1" page="1" pageScale="1" pageWidth="850" pageHeight="1100" math="0" shadow="0">
      <root>
        <mxCell id="0" />
        <mxCell id="1" parent="0" />
        <mxCell id="R4LXcRkoxZxGAqNz7_yt-1" value="" style="rounded=1;whiteSpace=wrap;html=1;fillColor=#f5f5f5;fontColor=#333333;strokeColor=#666666;" vertex="1" parent="1">
          <mxGeometry x="210" y="50" width="490" height="360" as="geometry" />
        </mxCell>
        <mxCell id="R4LXcRkoxZxGAqNz7_yt-2" value="&lt;font style=&quot;font-size: 30px;&quot;&gt;&lt;b style=&quot;&quot;&gt;Main Window&lt;/b&gt;&lt;/font&gt;" style="text;html=1;align=center;verticalAlign=middle;whiteSpace=wrap;rounded=0;" vertex="1" parent="1">
          <mxGeometry x="330" y="50" width="262.5" height="60" as="geometry" />
        </mxCell>
        <mxCell id="R4LXcRkoxZxGAqNz7_yt-4" value="&lt;font style=&quot;font-size: 16px;&quot;&gt;&lt;b&gt;Home (0)&lt;/b&gt;&lt;/font&gt;" style="rounded=0;whiteSpace=wrap;html=1;" vertex="1" parent="1">
          <mxGeometry x="240" y="160" width="120" height="60" as="geometry" />
        </mxCell>
        <mxCell id="R4LXcRkoxZxGAqNz7_yt-5" value="&lt;font style=&quot;font-size: 16px;&quot;&gt;&lt;b&gt;Simulation (1)&lt;/b&gt;&lt;/font&gt;" style="rounded=0;whiteSpace=wrap;html=1;" vertex="1" parent="1">
          <mxGeometry x="240" y="240" width="120" height="60" as="geometry" />
        </mxCell>
        <mxCell id="R4LXcRkoxZxGAqNz7_yt-6" value="&lt;font style=&quot;font-size: 16px;&quot;&gt;&lt;b&gt;Learning Module (4)&lt;/b&gt;&lt;/font&gt;" style="rounded=0;whiteSpace=wrap;html=1;" vertex="1" parent="1">
          <mxGeometry x="540" y="160" width="120" height="60" as="geometry" />
        </mxCell>
        <mxCell id="R4LXcRkoxZxGAqNz7_yt-7" value="&lt;font style=&quot;font-size: 16px;&quot;&gt;&lt;b&gt;Live Data (2)&lt;/b&gt;&lt;/font&gt;" style="rounded=0;whiteSpace=wrap;html=1;" vertex="1" parent="1">
          <mxGeometry x="395" y="240" width="120" height="60" as="geometry" />
        </mxCell>
        <mxCell id="R4LXcRkoxZxGAqNz7_yt-8" value="&lt;font style=&quot;font-size: 16px;&quot;&gt;&lt;b&gt;Quiz (3)&lt;/b&gt;&lt;/font&gt;" style="rounded=0;whiteSpace=wrap;html=1;" vertex="1" parent="1">
          <mxGeometry x="540" y="240" width="120" height="60" as="geometry" />
        </mxCell>
        <mxCell id="R4LXcRkoxZxGAqNz7_yt-9" value="&lt;font style=&quot;font-size: 20px;&quot;&gt;&lt;b&gt;Index&lt;/b&gt;&lt;/font&gt;" style="rhombus;whiteSpace=wrap;html=1;" vertex="1" parent="1">
          <mxGeometry x="415" y="120" width="80" height="80" as="geometry" />
        </mxCell>
        <mxCell id="R4LXcRkoxZxGAqNz7_yt-10" value="&lt;span style=&quot;font-size: 16px;&quot;&gt;&lt;b&gt;Classroom (5)&lt;/b&gt;&lt;/span&gt;" style="rounded=0;whiteSpace=wrap;html=1;" vertex="1" parent="1">
          <mxGeometry x="472.5" y="320" width="120" height="60" as="geometry" />
        </mxCell>
        <mxCell id="R4LXcRkoxZxGAqNz7_yt-11" value="&lt;span style=&quot;font-size: 16px;&quot;&gt;&lt;b&gt;How Water is Polluted (6)&lt;/b&gt;&lt;/span&gt;" style="rounded=0;whiteSpace=wrap;html=1;" vertex="1" parent="1">
          <mxGeometry x="295" y="320" width="120" height="60" as="geometry" />
        </mxCell>
        <mxCell id="R4LXcRkoxZxGAqNz7_yt-12" value="" style="endArrow=classic;html=1;rounded=0;strokeWidth=7;" edge="1" parent="1">
          <mxGeometry width="50" height="50" relative="1" as="geometry">
            <mxPoint x="444.3939393939395" y="180.0039393939394" as="sourcePoint" />
            <mxPoint x="350" y="250" as="targetPoint" />
            <Array as="points" />
          </mxGeometry>
        </mxCell>
      </root>
    </mxGraphModel>
  </diagram>
</mxfile>
